<?xml version="1.0" encoding="UTF-8" standalone="no"?>
<!DOCTYPE svg PUBLIC "-//W3C//DTD SVG 1.1//EN"
 "http://www.w3.org/Graphics/SVG/1.1/DTD/svg11.dtd">
<!-- Generated by graphviz version 2.38.0 (20140413.2041)
 -->
<!-- Title: G Pages: 1 -->
<svg width="256pt" height="288pt"
 viewBox="0.00 0.00 256.22 288.00" xmlns="http://www.w3.org/2000/svg" xmlns:xlink="http://www.w3.org/1999/xlink">
<g id="graph0" class="graph" transform="scale(0.912143 0.912143) rotate(0) translate(4 311.74)">
<title>G</title>
<polygon fill="white" stroke="none" points="-4,4 -4,-311.74 276.894,-311.74 276.894,4 -4,4"/>
<!-- main -->
<g id="node1" class="node"><title>main</title>
<polygon fill="none" stroke="black" points="138.547,-307.74 84.5473,-307.74 84.5473,-271.74 138.547,-271.74 138.547,-307.74"/>
<text text-anchor="middle" x="111.547" y="-286.04" font-family="Times,serif" font-size="14.00">main</text>
</g>
<!-- parse -->
<g id="node2" class="node"><title>parse</title>
<ellipse fill="none" stroke="black" cx="111.547" cy="-216.74" rx="29.4969" ry="18"/>
<text text-anchor="middle" x="111.547" y="-213.04" font-family="Times,serif" font-size="14.00">parse</text>
</g>
<!-- main&#45;&gt;parse -->
<g id="edge1" class="edge"><title>main&#45;&gt;parse</title>
<path fill="none" stroke="black" d="M111.547,-271.553C111.547,-263.53 111.547,-253.788 111.547,-244.809"/>
<polygon fill="black" stroke="black" points="115.047,-244.769 111.547,-234.769 108.047,-244.769 115.047,-244.769"/>
</g>
<!-- init -->
<g id="node4" class="node"><title>init</title>
<ellipse fill="none" stroke="black" cx="172.547" cy="-162.74" rx="27" ry="18"/>
<text text-anchor="middle" x="172.547" y="-159.04" font-family="Times,serif" font-size="14.00">init</text>
</g>
<!-- main&#45;&gt;init -->
<g id="edge3" class="edge"><title>main&#45;&gt;init</title>
<path fill="none" stroke="black" stroke-dasharray="1,5" d="M125.63,-271.585C133.49,-261.367 142.99,-247.867 149.547,-234.74 156.56,-220.7 162.086,-204.051 165.962,-190.406"/>
<polygon fill="black" stroke="black" points="169.368,-191.216 168.601,-180.649 162.611,-189.388 169.368,-191.216"/>
</g>
<!-- cleanup -->
<g id="node5" class="node"><title>cleanup</title>
<ellipse fill="none" stroke="black" cx="234.547" cy="-216.74" rx="38.1938" ry="18"/>
<text text-anchor="middle" x="234.547" y="-213.04" font-family="Times,serif" font-size="14.00">cleanup</text>
</g>
<!-- main&#45;&gt;cleanup -->
<g id="edge4" class="edge"><title>main&#45;&gt;cleanup</title>
<path fill="none" stroke="black" d="M138.675,-276.522C152.119,-270.178 168.452,-262.033 182.547,-253.74 190.438,-249.098 198.704,-243.661 206.265,-238.44"/>
<polygon fill="black" stroke="black" points="208.587,-241.086 214.751,-232.469 204.559,-235.361 208.587,-241.086"/>
</g>
<!-- printf -->
<g id="node7" class="node"><title>printf</title>
<ellipse fill="none" stroke="black" cx="30.5473" cy="-26.8701" rx="30.5947" ry="18"/>
<text text-anchor="middle" x="30.5473" y="-23.1701" font-family="Times,serif" font-size="14.00">printf</text>
</g>
<!-- main&#45;&gt;printf -->
<g id="edge8" class="edge"><title>main&#45;&gt;printf</title>
<path fill="none" stroke="red" stroke-width="2" d="M97.7464,-271.44C89.9795,-261.173 80.4795,-247.673 73.5473,-234.74 42.0485,-175.976 33.6017,-96.3754 31.3516,-55.1479"/>
<polygon fill="red" stroke="red" stroke-width="2" points="34.8432,-54.8845 30.8848,-45.0569 27.8507,-55.208 34.8432,-54.8845"/>
<text text-anchor="middle" x="79.0473" y="-159.04" font-family="Times,serif" font-size="14.00">100 times</text>
</g>
<!-- execute -->
<g id="node3" class="node"><title>execute</title>
<ellipse fill="none" stroke="black" cx="111.547" cy="-108.74" rx="37.8943" ry="18"/>
<text text-anchor="middle" x="111.547" y="-105.04" font-family="Times,serif" font-size="14.00">execute</text>
</g>
<!-- parse&#45;&gt;execute -->
<g id="edge2" class="edge"><title>parse&#45;&gt;execute</title>
<path fill="none" stroke="black" d="M111.547,-198.709C111.547,-182.118 111.547,-156.623 111.547,-137.171"/>
<polygon fill="black" stroke="black" points="115.047,-137.081 111.547,-127.081 108.047,-137.081 115.047,-137.081"/>
</g>
<!-- make_string -->
<g id="node6" class="node"><title>make_string</title>
<ellipse fill="none" stroke="black" cx="201.547" cy="-26.8701" rx="39.6962" ry="26.7407"/>
<text text-anchor="middle" x="201.547" y="-30.6701" font-family="Times,serif" font-size="14.00">make a</text>
<text text-anchor="middle" x="201.547" y="-15.6701" font-family="Times,serif" font-size="14.00">string</text>
</g>
<!-- execute&#45;&gt;make_string -->
<g id="edge5" class="edge"><title>execute&#45;&gt;make_string</title>
<path fill="none" stroke="black" d="M128.9,-92.3404C140.709,-81.8605 156.666,-67.7001 170.616,-55.3197"/>
<polygon fill="black" stroke="black" points="172.965,-57.9149 178.121,-48.6595 168.318,-52.6793 172.965,-57.9149"/>
</g>
<!-- execute&#45;&gt;printf -->
<g id="edge6" class="edge"><title>execute&#45;&gt;printf</title>
<path fill="none" stroke="black" d="M95.9297,-92.3404C83.6724,-80.2541 66.4506,-63.2725 52.7587,-49.7716"/>
<polygon fill="black" stroke="black" points="55.1473,-47.2115 45.5693,-42.6825 50.2324,-52.1959 55.1473,-47.2115"/>
</g>
<!-- compare -->
<g id="node8" class="node"><title>compare</title>
<polygon fill="#c1b2ff" stroke="#c1b2ff" points="143.547,-44.8701 79.5473,-44.8701 79.5473,-8.87006 143.547,-8.87006 143.547,-44.8701"/>
<text text-anchor="middle" x="111.547" y="-23.1701" font-family="Times,serif" font-size="14.00">compare</text>
</g>
<!-- execute&#45;&gt;compare -->
<g id="edge9" class="edge"><title>execute&#45;&gt;compare</title>
<path fill="none" stroke="red" d="M111.547,-90.4095C111.547,-80.0823 111.547,-66.7479 111.547,-55.0464"/>
<polygon fill="red" stroke="red" points="115.047,-54.8924 111.547,-44.8925 108.047,-54.8925 115.047,-54.8924"/>
</g>
<!-- init&#45;&gt;make_string -->
<g id="edge7" class="edge"><title>init&#45;&gt;make_string</title>
<path fill="none" stroke="black" d="M176.22,-144.785C180.607,-124.537 188.064,-90.1114 193.754,-63.8444"/>
<polygon fill="black" stroke="black" points="197.219,-64.3819 195.915,-53.8676 190.378,-62.8999 197.219,-64.3819"/>
</g>
</g>
</svg>
