<?xml version="1.0" encoding="UTF-8" standalone="no"?>
<!DOCTYPE svg PUBLIC "-//W3C//DTD SVG 1.1//EN"
 "http://www.w3.org/Graphics/SVG/1.1/DTD/svg11.dtd">
<!-- Generated by graphviz version 2.38.0 (20140413.2041)
 -->
<!-- Title: G Pages: 1 -->
<svg width="432pt" height="87pt"
 viewBox="0.00 0.00 432.00 86.90" xmlns="http://www.w3.org/2000/svg" xmlns:xlink="http://www.w3.org/1999/xlink">
<g id="graph0" class="graph" transform="scale(0.678179 0.678179) rotate(0) translate(4 124.136)">
<title>G</title>
<polygon fill="white" stroke="none" points="-4,4 -4,-124.136 633,-124.136 633,4 -4,4"/>
<!-- u1 -->
<g id="node1" class="node"><title>u1</title>
<ellipse fill="none" stroke="black" cx="27" cy="-71.1363" rx="27" ry="18"/>
<text text-anchor="middle" x="27" y="-67.4363" font-family="Times,serif" font-size="14.00">0</text>
</g>
<!-- u2 -->
<g id="node2" class="node"><title>u2</title>
<ellipse fill="none" stroke="black" cx="142" cy="-102.136" rx="27" ry="18"/>
<text text-anchor="middle" x="142" y="-98.4363" font-family="Times,serif" font-size="14.00">1</text>
</g>
<!-- u1&#45;&gt;u2 -->
<g id="edge1" class="edge"><title>u1&#45;&gt;u2</title>
<path fill="none" stroke="black" d="M54.2085,-72.5255C70.9949,-75.9638 92.8462,-81.8673 110.423,-87.674"/>
<polygon fill="black" stroke="black" points="109.613,-91.0973 120.208,-91.0623 111.904,-84.4827 109.613,-91.0973"/>
</g>
<!-- o1 -->
<g id="node6" class="node"><title>o1</title>
<polygon fill="#c1b2ff" stroke="#c1b2ff" points="169,-66.1363 115,-66.1363 115,-30.1363 169,-30.1363 169,-66.1363"/>
<text text-anchor="middle" x="142" y="-44.4363" font-family="Times,serif" font-size="14.00">0</text>
</g>
<!-- u1&#45;&gt;o1 -->
<g id="edge9" class="edge"><title>u1&#45;&gt;o1</title>
<path fill="none" stroke="black" d="M51.0261,-62.2554C57.708,-59.9611 65.0722,-57.7 72,-56.1363 82.4989,-53.7666 94.0639,-52.0768 104.676,-50.881"/>
<polygon fill="black" stroke="black" points="105.3,-54.3357 114.895,-49.8428 104.592,-47.3715 105.3,-54.3357"/>
<text text-anchor="middle" x="84.5" y="-59.9363" font-family="Times,serif" font-size="14.00">0.85</text>
</g>
<!-- o2 -->
<g id="node7" class="node"><title>o2</title>
<polygon fill="#c1b2ff" stroke="#c1b2ff" points="284,-41.1363 230,-41.1363 230,-5.13631 284,-5.13631 284,-41.1363"/>
<text text-anchor="middle" x="257" y="-19.4363" font-family="Times,serif" font-size="14.00">1</text>
</g>
<!-- u1&#45;&gt;o2 -->
<g id="edge14" class="edge"><title>u1&#45;&gt;o2</title>
<path fill="none" stroke="black" stroke-dasharray="1,5" d="M41.973,-56.0545C57.8701,-40.1133 85.478,-15.9468 115,-6.13631 149.535,5.34016 191.118,-2.06799 220.142,-10.3997"/>
<polygon fill="black" stroke="black" points="219.266,-13.7917 229.852,-13.3558 221.305,-7.0951 219.266,-13.7917"/>
<text text-anchor="middle" x="142" y="-9.93631" font-family="Times,serif" font-size="14.00">0.09</text>
</g>
<!-- u2&#45;&gt;u1 -->
<g id="edge2" class="edge"><title>u2&#45;&gt;u1</title>
<path fill="none" stroke="black" d="M114.714,-100.731C97.8341,-97.2694 75.8575,-91.3236 58.2524,-85.4914"/>
<polygon fill="black" stroke="black" points="59.0583,-82.0662 48.4634,-82.0903 56.7608,-88.6785 59.0583,-82.0662"/>
</g>
<!-- u3 -->
<g id="node3" class="node"><title>u3</title>
<ellipse fill="none" stroke="black" cx="257" cy="-102.136" rx="27" ry="18"/>
<text text-anchor="middle" x="257" y="-98.4363" font-family="Times,serif" font-size="14.00">2</text>
</g>
<!-- u2&#45;&gt;u3 -->
<g id="edge3" class="edge"><title>u2&#45;&gt;u3</title>
<path fill="none" stroke="black" d="M167.798,-96.437C183.401,-95.2757 203.772,-95.0771 221.005,-95.8411"/>
<polygon fill="black" stroke="black" points="221.072,-99.3509 231.26,-96.4413 221.481,-92.3629 221.072,-99.3509"/>
</g>
<!-- u2&#45;&gt;o2 -->
<g id="edge10" class="edge"><title>u2&#45;&gt;o2</title>
<path fill="none" stroke="black" d="M161.155,-89.4436C177.423,-78.0707 201.72,-61.084 221.65,-47.1512"/>
<polygon fill="black" stroke="black" points="223.697,-49.9906 229.887,-41.3923 219.686,-44.2536 223.697,-49.9906"/>
<text text-anchor="middle" x="199.5" y="-73.9363" font-family="Times,serif" font-size="14.00">0.85</text>
</g>
<!-- u3&#45;&gt;u2 -->
<g id="edge4" class="edge"><title>u3&#45;&gt;u2</title>
<path fill="none" stroke="black" d="M231.26,-107.831C215.669,-108.995 195.3,-109.196 178.059,-108.434"/>
<polygon fill="black" stroke="black" points="177.985,-104.924 167.798,-107.836 177.577,-111.912 177.985,-104.924"/>
</g>
<!-- u4 -->
<g id="node4" class="node"><title>u4</title>
<ellipse fill="none" stroke="black" cx="372" cy="-102.136" rx="27" ry="18"/>
<text text-anchor="middle" x="372" y="-98.4363" font-family="Times,serif" font-size="14.00">3</text>
</g>
<!-- u3&#45;&gt;u4 -->
<g id="edge5" class="edge"><title>u3&#45;&gt;u4</title>
<path fill="none" stroke="black" d="M282.798,-96.437C298.401,-95.2757 318.772,-95.0771 336.005,-95.8411"/>
<polygon fill="black" stroke="black" points="336.072,-99.3509 346.26,-96.4413 336.481,-92.3629 336.072,-99.3509"/>
</g>
<!-- o3 -->
<g id="node8" class="node"><title>o3</title>
<polygon fill="#c1b2ff" stroke="#c1b2ff" points="399,-66.1363 345,-66.1363 345,-30.1363 399,-30.1363 399,-66.1363"/>
<text text-anchor="middle" x="372" y="-44.4363" font-family="Times,serif" font-size="14.00">2</text>
</g>
<!-- u3&#45;&gt;o3 -->
<g id="edge11" class="edge"><title>u3&#45;&gt;o3</title>
<path fill="none" stroke="black" d="M279.52,-91.8522C295.334,-84.2953 317.175,-73.858 335.55,-65.0771"/>
<polygon fill="black" stroke="black" points="337.279,-68.1299 344.793,-60.6602 334.261,-61.814 337.279,-68.1299"/>
<text text-anchor="middle" x="314.5" y="-83.9363" font-family="Times,serif" font-size="14.00">0.85</text>
</g>
<!-- u4&#45;&gt;u3 -->
<g id="edge6" class="edge"><title>u4&#45;&gt;u3</title>
<path fill="none" stroke="black" d="M346.26,-107.831C330.669,-108.995 310.3,-109.196 293.059,-108.434"/>
<polygon fill="black" stroke="black" points="292.985,-104.924 282.798,-107.836 292.577,-111.912 292.985,-104.924"/>
</g>
<!-- u5 -->
<g id="node5" class="node"><title>u5</title>
<ellipse fill="none" stroke="black" cx="487" cy="-102.136" rx="27" ry="18"/>
<text text-anchor="middle" x="487" y="-98.4363" font-family="Times,serif" font-size="14.00">4</text>
</g>
<!-- u4&#45;&gt;u5 -->
<g id="edge7" class="edge"><title>u4&#45;&gt;u5</title>
<path fill="none" stroke="black" d="M397.798,-96.437C413.401,-95.2757 433.772,-95.0771 451.005,-95.8411"/>
<polygon fill="black" stroke="black" points="451.072,-99.3509 461.26,-96.4413 451.481,-92.3629 451.072,-99.3509"/>
</g>
<!-- o4 -->
<g id="node9" class="node"><title>o4</title>
<polygon fill="#c1b2ff" stroke="#c1b2ff" points="514,-66.1363 460,-66.1363 460,-30.1363 514,-30.1363 514,-66.1363"/>
<text text-anchor="middle" x="487" y="-44.4363" font-family="Times,serif" font-size="14.00">3</text>
</g>
<!-- u4&#45;&gt;o4 -->
<g id="edge12" class="edge"><title>u4&#45;&gt;o4</title>
<path fill="none" stroke="black" d="M394.52,-91.8522C410.334,-84.2953 432.175,-73.858 450.55,-65.0771"/>
<polygon fill="black" stroke="black" points="452.279,-68.1299 459.793,-60.6602 449.261,-61.814 452.279,-68.1299"/>
<text text-anchor="middle" x="429.5" y="-83.9363" font-family="Times,serif" font-size="14.00">0.85</text>
</g>
<!-- u5&#45;&gt;u4 -->
<g id="edge8" class="edge"><title>u5&#45;&gt;u4</title>
<path fill="none" stroke="black" d="M461.26,-107.831C445.669,-108.995 425.3,-109.196 408.059,-108.434"/>
<polygon fill="black" stroke="black" points="407.985,-104.924 397.798,-107.836 407.577,-111.912 407.985,-104.924"/>
</g>
<!-- o5 -->
<g id="node10" class="node"><title>o5</title>
<polygon fill="#c1b2ff" stroke="#c1b2ff" points="629,-120.136 575,-120.136 575,-84.1363 629,-84.1363 629,-120.136"/>
<text text-anchor="middle" x="602" y="-98.4363" font-family="Times,serif" font-size="14.00">0</text>
</g>
<!-- u5&#45;&gt;o5 -->
<g id="edge13" class="edge"><title>u5&#45;&gt;o5</title>
<path fill="none" stroke="black" d="M514.208,-102.136C529.184,-102.136 548.19,-102.136 564.596,-102.136"/>
<polygon fill="black" stroke="black" points="564.934,-105.636 574.934,-102.136 564.934,-98.6364 564.934,-105.636"/>
<text text-anchor="middle" x="544.5" y="-105.936" font-family="Times,serif" font-size="14.00">0.85</text>
</g>
</g>
</svg>
