<?xml version="1.0" encoding="UTF-8" standalone="no"?>
<!DOCTYPE svg PUBLIC "-//W3C//DTD SVG 1.1//EN"
 "http://www.w3.org/Graphics/SVG/1.1/DTD/svg11.dtd">
<!-- Generated by graphviz version 2.38.0 (20140413.2041)
 -->
<!-- Title: G Pages: 1 -->
<svg width="432pt" height="66pt"
 viewBox="0.00 0.00 432.00 66.46" xmlns="http://www.w3.org/2000/svg" xmlns:xlink="http://www.w3.org/1999/xlink">
<g id="graph0" class="graph" transform="scale(0.678179 0.678179) rotate(0) translate(4 94)">
<title>G</title>
<polygon fill="white" stroke="none" points="-4,4 -4,-94 633,-94 633,4 -4,4"/>
<!-- u1 -->
<g id="node1" class="node"><title>u1</title>
<ellipse fill="none" stroke="black" cx="27" cy="-72" rx="27" ry="18"/>
<text text-anchor="middle" x="27" y="-68.3" font-family="Times,serif" font-size="14.00">0</text>
</g>
<!-- u2 -->
<g id="node2" class="node"><title>u2</title>
<ellipse fill="none" stroke="black" cx="142" cy="-72" rx="27" ry="18"/>
<text text-anchor="middle" x="142" y="-68.3" font-family="Times,serif" font-size="14.00">1</text>
</g>
<!-- u1&#45;&gt;u2 -->
<g id="edge1" class="edge"><title>u1&#45;&gt;u2</title>
<path fill="none" stroke="black" d="M52.7983,-66.3007C68.4007,-65.1394 88.7718,-64.9408 106.005,-65.7048"/>
<polygon fill="black" stroke="black" points="106.072,-69.2146 116.26,-66.305 106.481,-62.2266 106.072,-69.2146"/>
</g>
<!-- o1 -->
<g id="node6" class="node"><title>o1</title>
<polygon fill="#c1b2ff" stroke="#c1b2ff" points="169,-36 115,-36 115,-0 169,-0 169,-36"/>
<text text-anchor="middle" x="142" y="-14.3" font-family="Times,serif" font-size="14.00">0</text>
</g>
<!-- u1&#45;&gt;o1 -->
<g id="edge9" class="edge"><title>u1&#45;&gt;o1</title>
<path fill="none" stroke="black" d="M49.5204,-61.7159C65.3341,-54.1589 87.1749,-43.7217 105.55,-34.9408"/>
<polygon fill="black" stroke="black" points="107.279,-37.9936 114.793,-30.5239 104.261,-31.6777 107.279,-37.9936"/>
<text text-anchor="middle" x="84.5" y="-53.8" font-family="Times,serif" font-size="14.00">0.85</text>
</g>
<!-- u2&#45;&gt;u1 -->
<g id="edge2" class="edge"><title>u2&#45;&gt;u1</title>
<path fill="none" stroke="black" d="M116.26,-77.695C100.669,-78.8587 80.2999,-79.0597 63.0586,-78.298"/>
<polygon fill="black" stroke="black" points="62.9853,-74.7879 52.7983,-77.6993 62.5774,-81.776 62.9853,-74.7879"/>
</g>
<!-- u3 -->
<g id="node3" class="node"><title>u3</title>
<ellipse fill="none" stroke="black" cx="257" cy="-72" rx="27" ry="18"/>
<text text-anchor="middle" x="257" y="-68.3" font-family="Times,serif" font-size="14.00">2</text>
</g>
<!-- u2&#45;&gt;u3 -->
<g id="edge3" class="edge"><title>u2&#45;&gt;u3</title>
<path fill="none" stroke="black" d="M167.798,-66.3007C183.401,-65.1394 203.772,-64.9408 221.005,-65.7048"/>
<polygon fill="black" stroke="black" points="221.072,-69.2146 231.26,-66.305 221.481,-62.2266 221.072,-69.2146"/>
</g>
<!-- o2 -->
<g id="node7" class="node"><title>o2</title>
<polygon fill="#c1b2ff" stroke="#c1b2ff" points="284,-36 230,-36 230,-0 284,-0 284,-36"/>
<text text-anchor="middle" x="257" y="-14.3" font-family="Times,serif" font-size="14.00">1</text>
</g>
<!-- u2&#45;&gt;o2 -->
<g id="edge10" class="edge"><title>u2&#45;&gt;o2</title>
<path fill="none" stroke="black" d="M164.52,-61.7159C180.334,-54.1589 202.175,-43.7217 220.55,-34.9408"/>
<polygon fill="black" stroke="black" points="222.279,-37.9936 229.793,-30.5239 219.261,-31.6777 222.279,-37.9936"/>
<text text-anchor="middle" x="199.5" y="-53.8" font-family="Times,serif" font-size="14.00">0.85</text>
</g>
<!-- u3&#45;&gt;u2 -->
<g id="edge4" class="edge"><title>u3&#45;&gt;u2</title>
<path fill="none" stroke="black" d="M231.26,-77.695C215.669,-78.8587 195.3,-79.0597 178.059,-78.298"/>
<polygon fill="black" stroke="black" points="177.985,-74.7879 167.798,-77.6993 177.577,-81.776 177.985,-74.7879"/>
</g>
<!-- u4 -->
<g id="node4" class="node"><title>u4</title>
<ellipse fill="none" stroke="black" cx="372" cy="-72" rx="27" ry="18"/>
<text text-anchor="middle" x="372" y="-68.3" font-family="Times,serif" font-size="14.00">3</text>
</g>
<!-- u3&#45;&gt;u4 -->
<g id="edge5" class="edge"><title>u3&#45;&gt;u4</title>
<path fill="none" stroke="black" d="M282.798,-66.3007C298.401,-65.1394 318.772,-64.9408 336.005,-65.7048"/>
<polygon fill="black" stroke="black" points="336.072,-69.2146 346.26,-66.305 336.481,-62.2266 336.072,-69.2146"/>
</g>
<!-- o3 -->
<g id="node8" class="node"><title>o3</title>
<polygon fill="#c1b2ff" stroke="#c1b2ff" points="399,-36 345,-36 345,-0 399,-0 399,-36"/>
<text text-anchor="middle" x="372" y="-14.3" font-family="Times,serif" font-size="14.00">2</text>
</g>
<!-- u3&#45;&gt;o3 -->
<g id="edge11" class="edge"><title>u3&#45;&gt;o3</title>
<path fill="none" stroke="black" d="M279.52,-61.7159C295.334,-54.1589 317.175,-43.7217 335.55,-34.9408"/>
<polygon fill="black" stroke="black" points="337.279,-37.9936 344.793,-30.5239 334.261,-31.6777 337.279,-37.9936"/>
<text text-anchor="middle" x="314.5" y="-53.8" font-family="Times,serif" font-size="14.00">0.85</text>
</g>
<!-- u4&#45;&gt;u3 -->
<g id="edge6" class="edge"><title>u4&#45;&gt;u3</title>
<path fill="none" stroke="black" d="M346.26,-77.695C330.669,-78.8587 310.3,-79.0597 293.059,-78.298"/>
<polygon fill="black" stroke="black" points="292.985,-74.7879 282.798,-77.6993 292.577,-81.776 292.985,-74.7879"/>
</g>
<!-- u5 -->
<g id="node5" class="node"><title>u5</title>
<ellipse fill="none" stroke="black" cx="487" cy="-72" rx="27" ry="18"/>
<text text-anchor="middle" x="487" y="-68.3" font-family="Times,serif" font-size="14.00">4</text>
</g>
<!-- u4&#45;&gt;u5 -->
<g id="edge7" class="edge"><title>u4&#45;&gt;u5</title>
<path fill="none" stroke="black" d="M397.798,-66.3007C413.401,-65.1394 433.772,-64.9408 451.005,-65.7048"/>
<polygon fill="black" stroke="black" points="451.072,-69.2146 461.26,-66.305 451.481,-62.2266 451.072,-69.2146"/>
</g>
<!-- o4 -->
<g id="node9" class="node"><title>o4</title>
<polygon fill="#c1b2ff" stroke="#c1b2ff" points="514,-36 460,-36 460,-0 514,-0 514,-36"/>
<text text-anchor="middle" x="487" y="-14.3" font-family="Times,serif" font-size="14.00">3</text>
</g>
<!-- u4&#45;&gt;o4 -->
<g id="edge12" class="edge"><title>u4&#45;&gt;o4</title>
<path fill="none" stroke="black" d="M394.52,-61.7159C410.334,-54.1589 432.175,-43.7217 450.55,-34.9408"/>
<polygon fill="black" stroke="black" points="452.279,-37.9936 459.793,-30.5239 449.261,-31.6777 452.279,-37.9936"/>
<text text-anchor="middle" x="429.5" y="-53.8" font-family="Times,serif" font-size="14.00">0.85</text>
</g>
<!-- u5&#45;&gt;u4 -->
<g id="edge8" class="edge"><title>u5&#45;&gt;u4</title>
<path fill="none" stroke="black" d="M461.26,-77.695C445.669,-78.8587 425.3,-79.0597 408.059,-78.298"/>
<polygon fill="black" stroke="black" points="407.985,-74.7879 397.798,-77.6993 407.577,-81.776 407.985,-74.7879"/>
</g>
<!-- o5 -->
<g id="node10" class="node"><title>o5</title>
<polygon fill="#c1b2ff" stroke="#c1b2ff" points="629,-90 575,-90 575,-54 629,-54 629,-90"/>
<text text-anchor="middle" x="602" y="-68.3" font-family="Times,serif" font-size="14.00">0</text>
</g>
<!-- u5&#45;&gt;o5 -->
<g id="edge13" class="edge"><title>u5&#45;&gt;o5</title>
<path fill="none" stroke="black" d="M514.208,-72C529.184,-72 548.19,-72 564.596,-72"/>
<polygon fill="black" stroke="black" points="564.934,-75.5001 574.934,-72 564.934,-68.5001 564.934,-75.5001"/>
<text text-anchor="middle" x="544.5" y="-75.8" font-family="Times,serif" font-size="14.00">0.85</text>
</g>
</g>
</svg>
